<?xml version="1.0" encoding="UTF-8"?>
<svg xmlns="http://www.w3.org/2000/svg" xmlns:xlink="http://www.w3.org/1999/xlink" width="50px" height="19px" viewBox="0 0 51 19" version="1.1">
<defs>
<clipPath id="clip1">
  <path d="M 33.28125 1 L 44.1875 1 L 44.1875 11.597656 L 33.28125 11.597656 Z M 33.28125 1 "/>
</clipPath>
<clipPath id="clip2">
  <path d="M 43.351562 2.773438 C 41.769531 0.65625 38.421875 0.515625 35.871094 2.453125 C 33.316406 4.390625 32.53125 7.675781 34.113281 9.789062 C 35.691406 11.90625 39.042969 12.046875 41.59375 10.109375 C 44.144531 8.171875 44.933594 4.886719 43.351562 2.773438 Z M 43.351562 2.773438 "/>
</clipPath>
<clipPath id="clip3">
  <path d="M 27.605469 5.234375 L 40.789062 -4.78125 L 49.914062 7.421875 L 36.726562 17.433594 Z M 27.605469 5.234375 "/>
</clipPath>
<clipPath id="clip4">
  <path d="M 43.351562 2.773438 C 41.769531 0.65625 38.421875 0.515625 35.871094 2.453125 C 33.316406 4.390625 32.53125 7.675781 34.113281 9.789062 C 35.691406 11.90625 39.042969 12.046875 41.59375 10.109375 C 44.144531 8.171875 44.933594 4.886719 43.351562 2.773438 Z M 43.351562 2.773438 "/>
</clipPath>
<clipPath id="clip5">
  <path d="M 31.277344 6.046875 L 40.507812 -0.964844 L 46.238281 6.699219 L 37.007812 13.710938 Z M 31.277344 6.046875 "/>
</clipPath>
<clipPath id="clip6">
  <path d="M 33.28125 1 L 44.1875 1 L 44.1875 11.597656 L 33.28125 11.597656 Z M 33.28125 1 "/>
</clipPath>
<clipPath id="clip7">
  <path d="M 43.351562 2.773438 C 41.769531 0.65625 38.421875 0.515625 35.871094 2.453125 C 33.316406 4.390625 32.53125 7.675781 34.113281 9.789062 C 35.691406 11.90625 39.042969 12.046875 41.59375 10.109375 C 44.144531 8.171875 44.933594 4.886719 43.351562 2.773438 Z M 43.351562 2.773438 "/>
</clipPath>
<clipPath id="clip8">
  <path d="M 27.605469 5.234375 L 40.789062 -4.78125 L 49.914062 7.421875 L 36.726562 17.433594 Z M 27.605469 5.234375 "/>
</clipPath>
<clipPath id="clip9">
  <path d="M 43.351562 2.773438 C 41.769531 0.65625 38.421875 0.515625 35.871094 2.453125 C 33.316406 4.390625 32.53125 7.675781 34.113281 9.789062 C 35.691406 11.90625 39.042969 12.046875 41.59375 10.109375 C 44.144531 8.171875 44.933594 4.886719 43.351562 2.773438 Z M 43.351562 2.773438 "/>
</clipPath>
<clipPath id="clip10">
  <path d="M 32.59375 10.652344 L 35.777344 -0.550781 L 44.929688 2.09375 L 41.746094 13.296875 Z M 32.59375 10.652344 "/>
</clipPath>
<clipPath id="clip11">
  <path d="M 33.28125 1 L 44.1875 1 L 44.1875 11.597656 L 33.28125 11.597656 Z M 33.28125 1 "/>
</clipPath>
<clipPath id="clip12">
  <path d="M 43.351562 2.773438 C 41.769531 0.65625 38.421875 0.515625 35.871094 2.453125 C 33.316406 4.390625 32.53125 7.675781 34.113281 9.789062 C 35.691406 11.90625 39.042969 12.046875 41.59375 10.109375 C 44.144531 8.171875 44.933594 4.886719 43.351562 2.773438 Z M 43.351562 2.773438 "/>
</clipPath>
<clipPath id="clip13">
  <path d="M 27.605469 5.234375 L 40.789062 -4.78125 L 49.914062 7.421875 L 36.726562 17.433594 Z M 27.605469 5.234375 "/>
</clipPath>
<clipPath id="clip14">
  <path d="M 43.351562 2.773438 C 41.769531 0.65625 38.421875 0.515625 35.871094 2.453125 C 33.316406 4.390625 32.53125 7.675781 34.113281 9.789062 C 35.691406 11.90625 39.042969 12.046875 41.59375 10.109375 C 44.144531 8.171875 44.933594 4.886719 43.351562 2.773438 Z M 43.351562 2.773438 "/>
</clipPath>
<clipPath id="clip15">
  <path d="M 31.277344 6.046875 L 40.507812 -0.964844 L 46.238281 6.699219 L 37.007812 13.710938 Z M 31.277344 6.046875 "/>
</clipPath>
<clipPath id="clip16">
  <path d="M 33.28125 1 L 44.1875 1 L 44.1875 11.597656 L 33.28125 11.597656 Z M 33.28125 1 "/>
</clipPath>
<clipPath id="clip17">
  <path d="M 43.351562 2.773438 C 41.769531 0.65625 38.421875 0.515625 35.871094 2.453125 C 33.316406 4.390625 32.53125 7.675781 34.113281 9.789062 C 35.691406 11.90625 39.042969 12.046875 41.59375 10.109375 C 44.144531 8.171875 44.933594 4.886719 43.351562 2.773438 Z M 43.351562 2.773438 "/>
</clipPath>
<clipPath id="clip18">
  <path d="M 27.605469 5.234375 L 40.789062 -4.78125 L 49.914062 7.421875 L 36.726562 17.433594 Z M 27.605469 5.234375 "/>
</clipPath>
<clipPath id="clip19">
  <path d="M 43.351562 2.773438 C 41.769531 0.65625 38.421875 0.515625 35.871094 2.453125 C 33.316406 4.390625 32.53125 7.675781 34.113281 9.789062 C 35.691406 11.90625 39.042969 12.046875 41.59375 10.109375 C 44.144531 8.171875 44.933594 4.886719 43.351562 2.773438 Z M 43.351562 2.773438 "/>
</clipPath>
<clipPath id="clip20">
  <path d="M 32.59375 10.652344 L 35.777344 -0.550781 L 44.929688 2.09375 L 41.746094 13.296875 Z M 32.59375 10.652344 "/>
</clipPath>
<clipPath id="clip21">
  <path d="M 33.28125 1 L 44.1875 1 L 44.1875 11.597656 L 33.28125 11.597656 Z M 33.28125 1 "/>
</clipPath>
<clipPath id="clip22">
  <path d="M 43.351562 2.773438 C 41.769531 0.65625 38.421875 0.515625 35.871094 2.453125 C 33.316406 4.390625 32.53125 7.675781 34.113281 9.789062 C 35.691406 11.90625 39.042969 12.046875 41.59375 10.109375 C 44.144531 8.171875 44.933594 4.886719 43.351562 2.773438 Z M 43.351562 2.773438 "/>
</clipPath>
<clipPath id="clip23">
  <path d="M 27.605469 5.234375 L 40.789062 -4.78125 L 49.914062 7.421875 L 36.726562 17.433594 Z M 27.605469 5.234375 "/>
</clipPath>
<clipPath id="clip24">
  <path d="M 43.351562 2.773438 C 41.769531 0.65625 38.421875 0.515625 35.871094 2.453125 C 33.316406 4.390625 32.53125 7.675781 34.113281 9.789062 C 35.691406 11.90625 39.042969 12.046875 41.59375 10.109375 C 44.144531 8.171875 44.933594 4.886719 43.351562 2.773438 Z M 43.351562 2.773438 "/>
</clipPath>
<clipPath id="clip25">
  <path d="M 33.28125 1 L 44.1875 1 L 44.1875 11.597656 L 33.28125 11.597656 Z M 33.28125 1 "/>
</clipPath>
<clipPath id="clip26">
  <path d="M 43.351562 2.773438 C 41.769531 0.65625 38.421875 0.515625 35.871094 2.453125 C 33.316406 4.390625 32.53125 7.675781 34.113281 9.789062 C 35.691406 11.90625 39.042969 12.046875 41.59375 10.109375 C 44.144531 8.171875 44.933594 4.886719 43.351562 2.773438 Z M 43.351562 2.773438 "/>
</clipPath>
<clipPath id="clip27">
  <path d="M 27.605469 5.234375 L 40.789062 -4.78125 L 49.914062 7.421875 L 36.726562 17.433594 Z M 27.605469 5.234375 "/>
</clipPath>
<clipPath id="clip28">
  <path d="M 36 3.207031 L 41.859375 3.207031 L 41.859375 9.253906 L 36 9.253906 Z M 36 3.207031 "/>
</clipPath>
<clipPath id="clip29">
  <path d="M 43.351562 2.773438 C 41.769531 0.65625 38.421875 0.515625 35.871094 2.453125 C 33.316406 4.390625 32.53125 7.675781 34.113281 9.789062 C 35.691406 11.90625 39.042969 12.046875 41.59375 10.109375 C 44.144531 8.171875 44.933594 4.886719 43.351562 2.773438 Z M 43.351562 2.773438 "/>
</clipPath>
<clipPath id="clip30">
  <path d="M 27.605469 5.234375 L 40.789062 -4.78125 L 49.914062 7.421875 L 36.726562 17.433594 Z M 27.605469 5.234375 "/>
</clipPath>
</defs>
<g id="surface1">
<path style=" stroke:none;fill-rule:nonzero;fill:rgb(0%,0%,0%);fill-opacity:1;" d="M 26.328125 6.292969 L 28.742188 6.136719 C 28.796875 6.535156 28.898438 6.828125 29.0625 7.042969 C 29.328125 7.375 29.695312 7.542969 30.183594 7.542969 C 30.542969 7.542969 30.824219 7.460938 31.019531 7.285156 C 31.203125 7.144531 31.3125 6.921875 31.3125 6.691406 C 31.3125 6.46875 31.210938 6.257812 31.035156 6.117188 C 30.851562 5.949219 30.421875 5.785156 29.742188 5.636719 C 28.632812 5.386719 27.832031 5.054688 27.363281 4.628906 C 26.894531 4.230469 26.628906 3.644531 26.648438 3.027344 C 26.648438 2.601562 26.777344 2.175781 27.015625 1.824219 C 27.289062 1.425781 27.667969 1.109375 28.117188 0.933594 C 28.605469 0.722656 29.28125 0.609375 30.136719 0.609375 C 31.183594 0.609375 31.984375 0.804688 32.535156 1.203125 C 33.085938 1.59375 33.414062 2.222656 33.515625 3.082031 L 31.128906 3.222656 C 31.0625 2.851562 30.9375 2.582031 30.722656 2.40625 C 30.511719 2.230469 30.238281 2.148438 29.878906 2.148438 C 29.585938 2.148438 29.367188 2.210938 29.21875 2.332031 C 29.082031 2.445312 28.988281 2.609375 29 2.792969 C 29 2.933594 29.070312 3.0625 29.183594 3.148438 C 29.300781 3.257812 29.585938 3.359375 30.035156 3.453125 C 31.148438 3.691406 31.9375 3.933594 32.421875 4.183594 C 32.910156 4.433594 33.257812 4.738281 33.46875 5.097656 C 33.691406 5.46875 33.800781 5.894531 33.792969 6.332031 C 33.792969 6.847656 33.644531 7.367188 33.351562 7.800781 C 33.046875 8.253906 32.625 8.605469 32.128906 8.820312 C 31.605469 9.050781 30.945312 9.171875 30.15625 9.171875 C 28.757812 9.171875 27.796875 8.902344 27.253906 8.355469 C 26.710938 7.8125 26.390625 7.125 26.328125 6.292969 Z M 0.699219 9.03125 L 0.699219 0.757812 L 4.933594 0.757812 C 5.714844 0.757812 6.320312 0.824219 6.730469 0.960938 C 7.136719 1.09375 7.492188 1.359375 7.734375 1.722656 C 8 2.121094 8.128906 2.582031 8.117188 3.0625 C 8.144531 3.878906 7.734375 4.65625 7.027344 5.0625 C 6.75 5.21875 6.445312 5.332031 6.136719 5.386719 C 6.363281 5.453125 6.59375 5.5625 6.796875 5.691406 C 6.953125 5.820312 7.082031 5.96875 7.199219 6.125 C 7.339844 6.285156 7.457031 6.460938 7.558594 6.644531 L 8.789062 9.042969 L 5.90625 9.042969 L 4.546875 6.496094 C 4.371094 6.171875 4.226562 5.960938 4.085938 5.859375 C 3.902344 5.730469 3.683594 5.664062 3.464844 5.664062 L 3.242188 5.664062 L 3.242188 9.023438 L 0.699219 9.023438 Z M 3.242188 4.109375 L 4.316406 4.109375 C 4.546875 4.089844 4.765625 4.054688 4.988281 4 C 5.152344 3.96875 5.300781 3.878906 5.398438 3.738281 C 5.648438 3.40625 5.613281 2.933594 5.308594 2.648438 C 5.144531 2.507812 4.820312 2.433594 4.363281 2.433594 L 3.242188 2.433594 Z M 0.121094 16.121094 L 2.535156 15.964844 C 2.589844 16.363281 2.691406 16.660156 2.855469 16.871094 C 3.113281 17.203125 3.492188 17.378906 3.976562 17.378906 C 4.335938 17.378906 4.621094 17.296875 4.8125 17.121094 C 4.996094 16.972656 5.105469 16.761719 5.105469 16.527344 C 5.105469 16.308594 5.003906 16.09375 4.832031 15.957031 C 4.648438 15.789062 4.214844 15.621094 3.527344 15.472656 C 2.417969 15.222656 1.617188 14.890625 1.148438 14.464844 C 0.679688 14.066406 0.414062 13.484375 0.433594 12.863281 C 0.433594 12.4375 0.5625 12.011719 0.800781 11.660156 C 1.074219 11.261719 1.453125 10.949219 1.902344 10.773438 C 2.390625 10.558594 3.070312 10.449219 3.921875 10.449219 C 4.96875 10.449219 5.769531 10.644531 6.320312 11.039062 C 6.871094 11.4375 7.191406 12.058594 7.292969 12.917969 L 4.90625 13.058594 C 4.839844 12.6875 4.710938 12.421875 4.5 12.246094 C 4.296875 12.066406 4.015625 11.984375 3.65625 11.992188 C 3.363281 11.992188 3.140625 12.058594 2.996094 12.1875 C 2.847656 12.300781 2.765625 12.464844 2.773438 12.652344 C 2.773438 12.789062 2.847656 12.917969 2.957031 13.003906 C 3.078125 13.113281 3.363281 13.214844 3.8125 13.308594 C 4.921875 13.546875 5.714844 13.789062 6.199219 14.039062 C 6.6875 14.289062 7.035156 14.59375 7.246094 14.957031 C 7.464844 15.324219 7.578125 15.75 7.578125 16.175781 C 7.578125 16.695312 7.421875 17.203125 7.136719 17.640625 C 6.832031 18.09375 6.410156 18.445312 5.914062 18.65625 C 5.390625 18.890625 4.730469 19.007812 3.941406 19.007812 C 2.542969 19.007812 1.582031 18.742188 1.039062 18.195312 C 0.496094 17.640625 0.195312 16.953125 0.121094 16.121094 Z M 0.121094 16.121094 "/>
<path style=" stroke:none;fill-rule:nonzero;fill:rgb(0%,0%,0%);fill-opacity:1;" d="M 12.332031 15.472656 L 14.554688 16.148438 C 14.4375 16.714844 14.1875 17.25 13.847656 17.722656 C 13.535156 18.140625 13.121094 18.464844 12.652344 18.675781 C 12.175781 18.890625 11.570312 19 10.835938 19 C 9.945312 19 9.210938 18.871094 8.652344 18.609375 C 8.082031 18.351562 7.59375 17.890625 7.183594 17.230469 C 6.769531 16.574219 6.566406 15.734375 6.566406 14.707031 C 6.566406 13.335938 6.925781 12.28125 7.648438 11.550781 C 8.375 10.820312 9.394531 10.449219 10.71875 10.449219 C 11.753906 10.449219 12.5625 10.660156 13.160156 11.078125 C 13.746094 11.503906 14.1875 12.152344 14.480469 13.023438 L 12.242188 13.519531 C 12.1875 13.328125 12.101562 13.132812 11.992188 12.964844 C 11.855469 12.769531 11.679688 12.625 11.46875 12.511719 C 11.257812 12.402344 11.019531 12.355469 10.78125 12.355469 C 10.203125 12.355469 9.761719 12.585938 9.457031 13.058594 C 9.230469 13.402344 9.109375 13.945312 9.109375 14.6875 C 9.109375 15.601562 9.246094 16.234375 9.523438 16.574219 C 9.796875 16.917969 10.183594 17.085938 10.6875 17.085938 C 11.175781 17.085938 11.542969 16.945312 11.792969 16.675781 C 12.039062 16.390625 12.222656 15.992188 12.332031 15.472656 Z M 17.519531 10.585938 L 20.054688 10.585938 L 20.054688 13.484375 L 22.828125 13.484375 L 22.828125 10.585938 L 25.378906 10.585938 L 25.378906 18.859375 L 22.828125 18.859375 L 22.828125 15.511719 L 20.054688 15.511719 L 20.054688 18.859375 L 17.519531 18.859375 Z M 17.519531 10.585938 "/>
<path style=" stroke:none;fill-rule:nonzero;fill:rgb(0%,0%,0%);fill-opacity:1;" d="M 25.03125 14.722656 C 25.03125 13.375 25.40625 12.316406 26.152344 11.570312 C 26.894531 10.820312 27.941406 10.4375 29.273438 10.4375 C 30.640625 10.4375 31.6875 10.808594 32.433594 11.550781 C 33.175781 12.289062 33.542969 13.328125 33.542969 14.660156 C 33.542969 15.632812 33.378906 16.417969 33.058594 17.039062 C 32.746094 17.648438 32.257812 18.148438 31.660156 18.480469 C 31.046875 18.824219 30.285156 19 29.375 19 C 28.449219 19 27.683594 18.851562 27.078125 18.554688 C 26.453125 18.242188 25.941406 17.75 25.601562 17.148438 C 25.222656 16.5 25.03125 15.695312 25.03125 14.722656 Z M 27.566406 14.734375 C 27.566406 15.566406 27.722656 16.167969 28.023438 16.539062 C 28.328125 16.898438 28.75 17.085938 29.28125 17.085938 C 29.824219 17.085938 30.246094 16.910156 30.550781 16.546875 C 30.851562 16.1875 31 15.546875 31 14.621094 C 31 13.84375 30.84375 13.269531 30.53125 12.917969 C 30.21875 12.558594 29.796875 12.382812 29.265625 12.382812 C 28.796875 12.363281 28.347656 12.566406 28.035156 12.929688 C 27.722656 13.289062 27.566406 13.890625 27.566406 14.734375 Z M 36.140625 14.722656 C 36.140625 13.375 36.519531 12.316406 37.261719 11.570312 C 38.007812 10.820312 39.054688 10.4375 40.382812 10.4375 C 41.753906 10.4375 42.808594 10.808594 43.542969 11.550781 C 44.277344 12.289062 44.652344 13.328125 44.652344 14.660156 C 44.652344 15.632812 44.488281 16.417969 44.167969 17.039062 C 43.855469 17.648438 43.367188 18.148438 42.769531 18.480469 C 42.15625 18.824219 41.394531 19 40.484375 19 C 39.558594 19 38.796875 18.851562 38.191406 18.554688 C 37.566406 18.242188 37.050781 17.75 36.710938 17.148438 C 36.335938 16.5 36.140625 15.695312 36.140625 14.722656 Z M 38.675781 14.734375 C 38.675781 15.566406 38.832031 16.167969 39.136719 16.539062 C 39.4375 16.898438 39.859375 17.085938 40.394531 17.085938 C 40.933594 17.085938 41.359375 16.910156 41.660156 16.546875 C 41.964844 16.1875 42.109375 15.546875 42.109375 14.621094 C 42.109375 13.84375 41.953125 13.269531 41.640625 12.917969 C 41.328125 12.558594 40.90625 12.382812 40.375 12.382812 C 39.90625 12.363281 39.449219 12.566406 39.144531 12.929688 C 38.832031 13.289062 38.675781 13.890625 38.675781 14.734375 Z M 38.675781 14.734375 "/>
<path style=" stroke:none;fill-rule:nonzero;fill:rgb(0%,0%,0%);fill-opacity:1;" d="M 44.386719 10.585938 L 46.921875 10.585938 L 46.921875 16.824219 L 50.878906 16.824219 L 50.878906 18.859375 L 44.378906 18.859375 L 44.378906 10.585938 Z M 44.386719 10.585938 "/>
<path style=" stroke:none;fill-rule:nonzero;fill:rgb(100%,100%,100%);fill-opacity:1;" d="M 43.351562 2.773438 C 41.769531 0.65625 38.421875 0.515625 35.871094 2.453125 C 33.316406 4.390625 32.53125 7.675781 34.113281 9.789062 C 35.691406 11.90625 39.042969 12.046875 41.59375 10.109375 C 44.144531 8.171875 44.933594 4.886719 43.351562 2.773438 Z M 43.351562 2.773438 "/>
<g clip-path="url(#clip1)" clip-rule="nonzero">
<g clip-path="url(#clip2)" clip-rule="nonzero">
<path style=" stroke:none;fill-rule:nonzero;fill:rgb(100%,100%,100%);fill-opacity:1;" d="M 27.605469 5.234375 L 40.789062 -4.78125 L 49.914062 7.421875 L 36.726562 17.433594 Z M 27.605469 5.234375 "/>
<g clip-path="url(#clip3)" clip-rule="nonzero">
<path style=" stroke:none;fill-rule:nonzero;fill:rgb(100%,100%,100%);fill-opacity:1;" d="M 43.351562 2.773438 C 41.769531 0.65625 38.421875 0.515625 35.871094 2.453125 C 33.316406 4.390625 32.53125 7.675781 34.113281 9.789062 C 35.691406 11.90625 39.042969 12.046875 41.59375 10.109375 C 44.144531 8.171875 44.933594 4.886719 43.351562 2.773438 Z M 43.351562 2.773438 "/>
<g clip-path="url(#clip4)" clip-rule="nonzero">
<path style=" stroke:none;fill-rule:nonzero;fill:rgb(100%,100%,100%);fill-opacity:1;" d="M 31.277344 6.046875 L 40.507812 -0.964844 L 46.238281 6.699219 L 37.007812 13.710938 Z M 31.277344 6.046875 "/>
<g clip-path="url(#clip5)" clip-rule="nonzero">
<path style="fill-rule:nonzero;fill:rgb(100%,100%,100%);fill-opacity:1;stroke-width:4;stroke-linecap:butt;stroke-linejoin:miter;stroke:rgb(0%,0%,0%);stroke-opacity:1;stroke-miterlimit:10;" d="M 483.494113 67.90939 C 483.502005 39.270144 455.299612 16.114711 420.514302 16.115201 C 385.695017 16.090087 357.502859 39.292617 357.520368 67.898155 C 357.478501 96.511799 385.71487 119.692835 420.500179 119.692345 C 455.285489 119.691855 483.511623 96.514928 483.494113 67.90939 Z M 483.494113 67.90939 " transform="matrix(0.07333,-0.0556978,0.0552602,0.0739107,4.144232,24.683743)"/>
</g>
</g>
</g>
</g>
</g>
<g clip-path="url(#clip6)" clip-rule="nonzero">
<g clip-path="url(#clip7)" clip-rule="nonzero">
<g clip-path="url(#clip8)" clip-rule="nonzero">
<g clip-path="url(#clip9)" clip-rule="nonzero">
<g clip-path="url(#clip10)" clip-rule="nonzero">
<path style="fill:none;stroke-width:4;stroke-linecap:butt;stroke-linejoin:miter;stroke:rgb(0%,0%,0%);stroke-opacity:1;stroke-miterlimit:10;" d="M 357.811504 17.000478 L 483.691833 16.992066 L 483.696738 120.687866 L 357.816409 120.696279 Z M 357.811504 17.000478 " transform="matrix(0.073331,-0.0556965,0.0552588,0.0739117,4.099233,24.719198)"/>
</g>
</g>
</g>
</g>
</g>
<g clip-path="url(#clip11)" clip-rule="nonzero">
<g clip-path="url(#clip12)" clip-rule="nonzero">
<g clip-path="url(#clip13)" clip-rule="nonzero">
<g clip-path="url(#clip14)" clip-rule="nonzero">
<path style="fill:none;stroke-width:4;stroke-linecap:butt;stroke-linejoin:miter;stroke:rgb(0%,0%,0%);stroke-opacity:1;stroke-miterlimit:10;" d="M 483.494113 67.90939 C 483.502005 39.270144 455.299612 16.114711 420.514302 16.115201 C 385.695017 16.090087 357.502859 39.292617 357.520368 67.898155 C 357.478501 96.511799 385.71487 119.692835 420.500179 119.692345 C 455.285489 119.691855 483.511623 96.514928 483.494113 67.90939 Z M 483.494113 67.90939 " transform="matrix(0.07333,-0.0556978,0.0552602,0.0739107,4.144232,24.683743)"/>
<path style=" stroke:none;fill-rule:nonzero;fill:rgb(100%,100%,100%);fill-opacity:1;" d="M 31.277344 6.046875 L 40.507812 -0.964844 L 46.238281 6.699219 L 37.007812 13.710938 Z M 31.277344 6.046875 "/>
<g clip-path="url(#clip15)" clip-rule="nonzero">
<path style="fill-rule:nonzero;fill:rgb(100%,100%,100%);fill-opacity:1;stroke-width:4;stroke-linecap:butt;stroke-linejoin:miter;stroke:rgb(0%,0%,0%);stroke-opacity:1;stroke-miterlimit:10;" d="M 483.494113 67.90939 C 483.502005 39.270144 455.299612 16.114711 420.514302 16.115201 C 385.695017 16.090087 357.502859 39.292617 357.520368 67.898155 C 357.478501 96.511799 385.71487 119.692835 420.500179 119.692345 C 455.285489 119.691855 483.511623 96.514928 483.494113 67.90939 Z M 483.494113 67.90939 " transform="matrix(0.07333,-0.0556978,0.0552602,0.0739107,4.144232,24.683743)"/>
</g>
</g>
</g>
</g>
</g>
<g clip-path="url(#clip16)" clip-rule="nonzero">
<g clip-path="url(#clip17)" clip-rule="nonzero">
<g clip-path="url(#clip18)" clip-rule="nonzero">
<g clip-path="url(#clip19)" clip-rule="nonzero">
<g clip-path="url(#clip20)" clip-rule="nonzero">
<path style="fill:none;stroke-width:4;stroke-linecap:butt;stroke-linejoin:miter;stroke:rgb(0%,0%,0%);stroke-opacity:1;stroke-miterlimit:10;" d="M 357.811504 17.000478 L 483.691833 16.992066 L 483.696738 120.687866 L 357.816409 120.696279 Z M 357.811504 17.000478 " transform="matrix(0.073331,-0.0556965,0.0552588,0.0739117,4.099233,24.719198)"/>
</g>
</g>
</g>
</g>
</g>
<g clip-path="url(#clip21)" clip-rule="nonzero">
<g clip-path="url(#clip22)" clip-rule="nonzero">
<g clip-path="url(#clip23)" clip-rule="nonzero">
<g clip-path="url(#clip24)" clip-rule="nonzero">
<path style="fill:none;stroke-width:4;stroke-linecap:butt;stroke-linejoin:miter;stroke:rgb(0%,0%,0%);stroke-opacity:1;stroke-miterlimit:10;" d="M 330.893388 -14.182161 L 510.690994 -14.199766 L 510.701419 150.914339 L 330.89524 150.872631 Z M 330.893388 -14.182161 " transform="matrix(0.07333,-0.0556978,0.0552602,0.0739107,4.12475,24.712609)"/>
</g>
</g>
</g>
</g>
<g clip-path="url(#clip25)" clip-rule="nonzero">
<g clip-path="url(#clip26)" clip-rule="nonzero">
<g clip-path="url(#clip27)" clip-rule="nonzero">
<path style="fill:none;stroke-width:4;stroke-linecap:butt;stroke-linejoin:miter;stroke:rgb(0%,0%,0%);stroke-opacity:1;stroke-miterlimit:10;" d="M 483.494113 67.90939 C 483.502005 39.270144 455.299612 16.114711 420.514302 16.115201 C 385.695017 16.090087 357.502859 39.292617 357.520368 67.898155 C 357.478501 96.511799 385.71487 119.692835 420.500179 119.692345 C 455.285489 119.691855 483.511623 96.514928 483.494113 67.90939 Z M 483.494113 67.90939 " transform="matrix(0.07333,-0.0556978,0.0552602,0.0739107,4.144232,24.683743)"/>
</g>
</g>
</g>
<g clip-path="url(#clip28)" clip-rule="nonzero">
<g clip-path="url(#clip29)" clip-rule="nonzero">
<g clip-path="url(#clip30)" clip-rule="nonzero">
<path style=" stroke:none;fill-rule:nonzero;fill:rgb(0%,0%,0%);fill-opacity:1;" d="M 36.152344 5.671875 L 37.070312 5.023438 L 38.199219 6.644531 C 38.390625 6.902344 38.539062 7.183594 38.648438 7.488281 C 38.714844 7.71875 38.695312 7.96875 38.601562 8.191406 C 38.484375 8.46875 38.289062 8.699219 38.035156 8.867188 C 37.730469 9.078125 37.472656 9.199219 37.253906 9.238281 C 37.042969 9.273438 36.820312 9.238281 36.621094 9.144531 C 36.398438 9.03125 36.207031 8.875 36.058594 8.671875 L 36.847656 7.929688 C 36.914062 8.03125 36.996094 8.125 37.089844 8.199219 C 37.152344 8.246094 37.226562 8.273438 37.308594 8.273438 C 37.371094 8.273438 37.4375 8.246094 37.480469 8.207031 C 37.574219 8.152344 37.640625 8.042969 37.628906 7.929688 C 37.601562 7.773438 37.539062 7.617188 37.4375 7.496094 Z M 38.90625 6.699219 L 39.742188 6.035156 C 39.832031 6.144531 39.953125 6.230469 40.082031 6.273438 C 40.265625 6.332031 40.457031 6.292969 40.613281 6.171875 C 40.722656 6.097656 40.816406 5.996094 40.851562 5.867188 C 40.90625 5.699219 40.816406 5.515625 40.652344 5.460938 C 40.621094 5.453125 40.59375 5.441406 40.566406 5.441406 C 40.457031 5.433594 40.265625 5.480469 39.980469 5.597656 C 39.511719 5.792969 39.144531 5.867188 38.867188 5.839844 C 38.601562 5.8125 38.355469 5.671875 38.207031 5.441406 C 38.097656 5.285156 38.042969 5.097656 38.035156 4.914062 C 38.035156 4.703125 38.089844 4.488281 38.207031 4.3125 C 38.382812 4.0625 38.59375 3.851562 38.851562 3.683594 C 39.238281 3.414062 39.574219 3.285156 39.871094 3.285156 C 40.164062 3.285156 40.4375 3.425781 40.695312 3.710938 L 39.871094 4.367188 C 39.703125 4.15625 39.394531 4.109375 39.179688 4.277344 L 39.152344 4.304688 C 39.0625 4.359375 38.996094 4.441406 38.960938 4.542969 C 38.933594 4.617188 38.953125 4.703125 38.996094 4.765625 C 39.035156 4.8125 39.089844 4.847656 39.152344 4.847656 C 39.226562 4.859375 39.355469 4.820312 39.539062 4.738281 C 40 4.542969 40.347656 4.433594 40.585938 4.394531 C 40.789062 4.359375 41 4.378906 41.191406 4.460938 C 41.367188 4.535156 41.511719 4.664062 41.613281 4.820312 C 41.742188 5.007812 41.816406 5.230469 41.824219 5.460938 C 41.835938 5.699219 41.769531 5.933594 41.640625 6.136719 C 41.476562 6.386719 41.265625 6.597656 41.019531 6.765625 C 40.511719 7.117188 40.097656 7.265625 39.769531 7.210938 C 39.410156 7.152344 39.117188 6.96875 38.90625 6.699219 Z M 38.90625 6.699219 "/>
</g>
</g>
</g>
</g>
</svg>
